<?xml version="1.0" encoding="UTF-8" standalone="no"?>
<!-- Created with Inkscape (http://www.inkscape.org/) -->

<svg
   width="16"
   height="16"
   viewBox="0 0 4.2333332 4.2333334"
   version="1.1"
   id="svg1"
   inkscape:export-filename="logo-16 2.png"
   inkscape:export-xdpi="96"
   inkscape:export-ydpi="96"
   xml:space="preserve"
   inkscape:version="1.3.2 (091e20e, 2023-11-25, custom)"
   sodipodi:docname="logo.svg"
   xmlns:inkscape="http://www.inkscape.org/namespaces/inkscape"
   xmlns:sodipodi="http://sodipodi.sourceforge.net/DTD/sodipodi-0.dtd"
   xmlns="http://www.w3.org/2000/svg"
   xmlns:svg="http://www.w3.org/2000/svg"><sodipodi:namedview
     id="namedview1"
     pagecolor="#ffffff"
     bordercolor="#000000"
     borderopacity="0.25"
     inkscape:showpageshadow="2"
     inkscape:pageopacity="0.0"
     inkscape:pagecheckerboard="0"
     inkscape:deskcolor="#d1d1d1"
     inkscape:document-units="mm"
     inkscape:zoom="35.57631"
     inkscape:cx="11.215328"
     inkscape:cy="6.3665962"
     inkscape:window-width="1920"
     inkscape:window-height="1009"
     inkscape:window-x="-8"
     inkscape:window-y="-8"
     inkscape:window-maximized="1"
     inkscape:current-layer="layer1" /><defs
     id="defs1" /><rect
     style="fill:#ffffff;fill-opacity:1;stroke:none;stroke-width:0.264999;stroke-linecap:round;stroke-linejoin:round;stroke-dasharray:none;stroke-opacity:1"
     id="rect24"
     width="4.4399281"
     height="4.4250541"
     x="-0.059496522"
     y="-0.059496522"
     ry="0.25242236" /><ellipse
     style="fill:#d0b065;fill-opacity:1;stroke:none;stroke-width:0.238771;stroke-linecap:round;stroke-linejoin:round;stroke-dasharray:none;stroke-opacity:1"
     id="ellipse23"
     cx="3.2320688"
     cy="-0.54093683"
     rx="1.4215775"
     ry="0.84198737"
     transform="matrix(0.92213711,0.38686322,-0.44944967,0.89330566,0,0)" /><ellipse
     style="fill:#d0b065;fill-opacity:1;stroke:none;stroke-width:0.244838;stroke-linecap:round;stroke-linejoin:round;stroke-dasharray:none;stroke-opacity:1"
     id="ellipse24"
     cx="5.7078452"
     cy="2.8267288"
     rx="1.6348339"
     ry="0.76982856"
     transform="matrix(0.96049882,0.27828405,-0.58883968,0.80824986,0,0)" /><ellipse
     style="fill:#d0b065;fill-opacity:1;stroke:none;stroke-width:0.276742;stroke-linecap:round;stroke-linejoin:round;stroke-dasharray:none;stroke-opacity:1"
     id="path23"
     cx="0.75041968"
     cy="2.0598207"
     rx="1.6367185"
     ry="0.9823975"
     transform="matrix(0.91926243,0.39364526,-0.44212683,0.89695255,0,0)" /><g
     inkscape:label="Calque 1"
     inkscape:groupmode="layer"
     id="layer1"><path
       id="path15"
       style="fill:#c8a149;fill-opacity:1;stroke-width:0.264999;stroke-linecap:round;stroke-linejoin:round"
       d="m 7.7879971,-0.36394985 c -0.012214,7.8865e-4 -0.024415,0.002492 -0.03669,0.005168 -0.6875827,0.14989597 -1.3862391,0.10041384 -2.0877279,0 -0.1989933,-0.0284846 -0.3837419,0.16284402 -0.3627685,0.36276855 0.09986,0.95189737 0.2746962,1.9067842 0,2.8453044 -0.056468,0.1929279 0.162782,0.3831425 0.3627685,0.3627686 0.6959103,-0.070896 1.3918177,-0.122427 2.0877279,0 0.1979811,0.03483 0.323985,-0.1655239 0.3627683,-0.362769 C 8.4750498,1.0134482 7.0572396,2.1737746 6.2718106,1.4328397 6.0299648,1.2046945 7.8728378,1.649485 8.1140754,0.00398635 8.1414121,-0.18247828 7.9712161,-0.37578509 7.7879971,-0.36394985 Z M 7.4893074,0.10837274 c 0.045655,-0.004153 0.1138837,0.0377876 0.1080037,0.079065 C 7.5214954,0.71944897 6.5925547,0.95961227 6.0315152,0.92951127 5.9830269,0.92690987 5.8918326,0.89834707 5.8661506,0.79153517 5.8289888,0.63697667 5.7961017,0.34383469 5.7669319,0.16418329 c -0.010019,-0.061702 0.102707,-0.059284 0.1648478,-0.0444417 0.4724897,0.11285242 1.0523415,0.11331636 1.5487427,-0.009819 0.00282,-6.9795e-4 0.00575,-0.001273 0.00879,-0.00155 z M 6.0263476,2.000247 c 0.00534,-4.43e-4 0.010857,-2.838e-4 0.01602,0 0.0059,3.3e-4 0.011703,7.17e-4 0.017053,0.00207 0.4560557,0.1152854 0.938548,0.1600149 1.4366048,0.1632975 0.048557,3.2e-4 0.153728,0.029311 0.1658813,0.1384929 0.01655,0.1486807 0.00334,0.2921617 -0.064079,0.4268473 -0.027982,0.055897 -0.1016859,0.054062 -0.1648479,0.044442 C 6.9783475,2.7061685 6.4522008,2.6642358 5.9317797,2.7485217 5.885973,2.7559397 5.796908,2.71164 5.814991,2.6710071 5.9149885,2.4463139 5.9289626,2.2504244 5.9472826,2.0529569 c 0.0027,-0.029055 0.04165,-0.049609 0.079065,-0.05271 z" /><path
       style="display:inline;fill:none;stroke:#4980c8;stroke-width:0.264583;stroke-linecap:round;stroke-linejoin:round"
       d="m 1.3461711,2.6323975 c 0.00534,-4.43e-4 0.010857,-2.838e-4 0.01602,0 0.0059,3.243e-4 0.011706,7.153e-4 0.017053,0.00207 0.4560553,0.1152853 0.9385485,0.160015 1.4366048,0.1632975 0.048557,3.2e-4 0.1537279,0.029311 0.1658813,0.1384929 0.01655,0.1486806 0.00334,0.2921624 -0.064079,0.4268473 C 2.8896695,3.418999 2.8159651,3.417161 2.7528035,3.4075439 2.2981714,3.3383191 1.7720237,3.2963867 1.2516032,3.3806722 1.2057962,3.388091 1.1167314,3.34379 1.1348145,3.3031576 1.2348117,3.0784646 1.2487858,2.8825747 1.2671061,2.6851074 c 0.0027,-0.029055 0.041651,-0.049609 0.079065,-0.05271 z"
       id="path22" /><path
       style="display:inline;fill:none;stroke:#4980c8;stroke-width:0.264583;stroke-linecap:round;stroke-linejoin:round"
       d="m 2.8091309,0.74052327 c 0.045656,-0.004153 0.113886,0.0377876 0.1080037,0.079065 C 2.8413187,1.3516001 1.9123788,1.5917623 1.3513387,1.5616618 1.3028502,1.5590603 1.2116556,1.5304977 1.1859741,1.4236857 1.1488125,1.269127 1.115925,0.9759854 1.0867554,0.79633382 c -0.010018,-0.0617021 0.1027065,-0.059284 0.1648478,-0.0444417 0.4724903,0.11285301 1.052341,0.1133165 1.5487427,-0.009819 0.00281,-6.9825e-4 0.00574,-0.001273 0.00879,-0.00155 z"
       id="path21" /><path
       style="display:inline;fill:none;stroke:#4980c8;stroke-width:0.264583;stroke-linecap:round;stroke-linejoin:round"
       d="m 3.1078206,0.26820068 c -0.012215,7.8902e-4 -0.024415,0.002492 -0.03669,0.005168 -0.6875855,0.14989657 -1.3862363,0.10041424 -2.08772789,0 -0.19899408,-0.0284848 -0.383742,0.16284322 -0.36276856,0.36276855 0.0998605,0.95190137 0.27469729,1.90678017 0,2.84530437 -0.0564683,0.1929284 0.1627812,0.3831425 0.36276856,0.3627686 0.69591309,-0.070896 1.39181489,-0.1224274 2.08772789,0 C 3.2691125,3.8790394 3.3951153,3.678687 3.4338989,3.4814412 3.7948748,1.6455915 2.3770662,2.805928 1.5916341,2.0649902 1.3497872,1.8368439 3.1926602,2.2816419 3.4338989,0.63613688 3.4612356,0.4496715 3.2910401,0.25636537 3.1078206,0.26820068 Z"
       id="path14" /></g></svg>
